# xmcd CD database file
#
# Track frame offsets:
#	150
#	18887
#	36285
#	54892
#	74350
#	92352
#	108545
#	121927
#	135490
#	153097
#	168575
#	186635
#	209507
#	228300
#	244715
#	261420
#	282000
#	296680
#	317750
#	334940
#
# Disc length: 4676 seconds
#
# Revision: 2
# Processed by: cddbd v1.5.1PL0 Copyright (c) Steve Scherf et al.
# Submitted via: CDex 1.51
#
DISCID=21124214
DTITLE=いろいろ - エイティーズ・アライヴ・スペシャル?ブルー?
DYEAR=1900
DGENRE=Rock
TTITLE0=デビッド・ボウイ - レッツ・ダンス
TTITLE1=ペット・ショップ・ボーイズ - オールウェイズ・オン・マイ・マインド
TTITLE2=デュラン・デュラン - プリーズ・テル・ミー・ナウ
TTITLE3=ブライアン・フェリー - ドント・ストップ・ザ・ダンス
TTITLE4=カルチャー・クラブ - カーマは気まぐれ
TTITLE5=シーナ・イーストン - モダン・ガール
TTITLE6=Go-Go's - ヴァケーション
TTITLE7=ビーチ・ボーイズ - ゲッチャ・バック
TTITLE8=リトル・リバー・バンド - ナイト・アウル
TTITLE9=ジョニー・ヘイツ・ジャズ - シャタード・ドリームス
TTITLE10=ジョン・ウェイト - ミッシング・ユー
TTITLE11=ザ・パワー・ステーション - サム・ライク・イット・ホット
TTITLE12=ジュース・ニュートン - 夜明けの天使
TTITLE13=JAPAN - ヴィジョンズ・オブ・チャイナ
TTITLE14=ポール・キャラック - 涙に別れを
TTITLE15=ブロンディ - 夢見るNo.1
TTITLE16=R.E.M - ワン・アイ・ラヴ
TTITLE17=リチャード・マークス - ドント・ミーン・ナッシング
TTITLE18=KC&サンシャイン・バンド - プリーズ・ドント・ゴー
TTITLE19=ピーボ・ブライソン＆ロバータ・フラック - 愛のセレブレーション
EXTD=
EXTT0=
EXTT1=
EXTT2=
EXTT3=
EXTT4=
EXTT5=
EXTT6=
EXTT7=
EXTT8=
EXTT9=
EXTT10=
EXTT11=
EXTT12=
EXTT13=
EXTT14=
EXTT15=
EXTT16=
EXTT17=
EXTT18=
EXTT19=
PLAYORDER=
